<svg width="369" height="71" viewBox="0 0 369 71" fill="none" xmlns="http://www.w3.org/2000/svg">
<path d="M104.914 29.6176L85.9091 51.5235H129.224V38.0728H115.434L132.759 16.167H90.3287V29.6176H104.914ZM183.519 16.167H166.281L153.022 44.9903H162.303L149.044 16.167H130.48L149.309 49.9862L140.204 68.4331H157L183.519 16.167ZM209.623 30.002V51.5235H227.745V28.465C227.745 24.2632 226.654 21.035 224.474 18.7801C222.294 16.4745 218.433 15.3215 212.894 15.3215C209.712 15.3215 207.089 15.8852 205.027 17.0124C203.023 18.0886 201.462 19.5234 200.342 21.3168V16.167H183.104V51.5235H200.342V30.002C200.342 28.8237 200.548 27.8757 200.96 27.1581C201.373 26.3895 201.962 25.8258 202.728 25.4672C203.494 25.1086 204.378 24.9293 205.38 24.9293C207.148 24.9293 208.297 25.3904 208.828 26.3127C209.358 27.1838 209.623 28.4136 209.623 30.002ZM249.885 16.167H233.09V51.5235H249.885V16.167ZM261.289 31.3857L268.272 18.4729C267.742 17.6018 266.769 16.8588 265.355 16.2438C264 15.5776 262.585 15.2447 261.112 15.2447C258.637 15.2447 256.279 15.9109 254.04 17.2432C251.86 18.524 250.092 20.2663 248.736 22.4698C247.381 24.6728 246.703 27.1838 246.703 30.002L249.885 36.5355C249.885 34.8443 250.18 33.4609 250.769 32.3847C251.418 31.3089 252.243 30.5145 253.244 30.002C254.246 29.4898 255.248 29.2337 256.25 29.2337C257.429 29.2337 258.431 29.4383 259.255 29.8484C260.081 30.2584 260.758 30.7706 261.289 31.3857ZM267.43 54.2138C267.96 57.3906 269.021 60.1834 270.612 62.5918C272.262 65.0514 274.767 66.9473 278.126 68.2796C281.544 69.6629 286.111 70.3548 291.828 70.3548C296.424 70.3548 300.491 69.7144 304.026 68.4331C307.621 67.2034 310.45 65.1539 312.513 62.2843C314.575 59.4147 315.606 55.5714 315.606 50.7549V16.167H299.253V50.7549C299.253 52.4458 298.929 53.8805 298.281 55.0592C297.632 56.289 296.689 57.2113 295.452 57.8263C294.214 58.4925 292.712 58.8254 290.944 58.8254C289.765 58.8254 288.675 58.6975 287.673 58.441C286.73 58.236 285.935 57.8006 285.286 57.1345C284.638 56.4683 284.196 55.4946 283.96 54.2138H267.43ZM266.546 33.0766C266.546 37.1245 267.46 40.4552 269.286 43.0687C271.172 45.6818 273.559 47.6292 276.447 48.91C279.334 50.1402 282.31 50.7549 285.375 50.7549C288.793 50.7549 291.828 50.0887 294.48 48.7564C297.19 47.3731 299.341 45.3747 300.933 42.7612C302.524 40.0966 303.319 36.8684 303.319 33.0766C303.319 29.2337 302.524 26.0051 300.933 23.392C299.341 20.7785 297.19 18.8058 294.48 17.4735C291.828 16.0902 288.793 15.3983 285.375 15.3983C282.31 15.3983 279.334 16.0387 276.447 17.3199C273.559 18.5497 271.172 20.4714 269.286 23.0845C267.46 25.6465 266.546 28.9772 266.546 33.0766ZM284.756 33.0766C284.756 31.7443 285.08 30.6428 285.728 29.7716C286.377 28.8494 287.261 28.1575 288.38 27.6964C289.5 27.1838 290.708 26.9277 292.004 26.9277C292.888 26.9277 293.743 27.0556 294.568 27.3121C295.452 27.5171 296.248 27.8757 296.955 28.3879C297.662 28.9004 298.221 29.5409 298.634 30.3095C299.047 31.0782 299.253 32.0004 299.253 33.0766C299.253 34.5114 298.899 35.6901 298.192 36.6123C297.485 37.4835 296.572 38.1496 295.452 38.6107C294.332 39.0208 293.183 39.2254 292.004 39.2254C290.708 39.2254 289.5 38.9951 288.38 38.534C287.261 38.0214 286.377 37.3042 285.728 36.3816C285.08 35.4593 284.756 34.3578 284.756 33.0766ZM368.182 16.167H350.944L337.685 44.9903H346.966L333.707 16.167H315.144L333.972 49.9862L324.868 68.4331H341.663L368.182 16.167Z" fill="black"/>
<path fill-rule="evenodd" clip-rule="evenodd" d="M46.9444 60.0455C52.7642 58.3876 52.9662 58.7019 49.8261 59.8081C46.6861 60.9135 52.1181 59.5625 49.1534 60.5779L47.7534 61.3047C47.7534 61.3047 45.4042 62.7345 44.125 62.559C42.8458 62.3831 45.5414 62.7674 43.5254 63.0806C41.5094 63.3922 26.7951 65.5562 9.6938 46.5433C12.967 56.9125 22.2724 63.4134 31.0692 65.6664C31.0692 65.6664 28.3076 65.0006 29.7528 65.615C31.1973 66.2293 28.4339 67.5586 16.7536 60.0872C16.9744 61.3376 17.0012 61.7428 18.2975 62.8544C18.2975 62.8544 2.87335 53.5476 1.52525 36.7243C1.10829 38.6192 0.617017 40.7635 0.617017 40.7635C0.617017 40.7635 -3.87306 25.044 11.3717 10.6225C26.6149 -3.79937 49.2974 1.00254 52.2965 1.85805C55.2964 2.71371 71.2362 10.2811 74.0285 14.8136C76.8216 19.3446 71.7275 15.5892 71.7275 15.5892C71.7275 15.5892 69.4983 16.1162 72.2304 18.3707C74.96 20.6263 76.9313 26.4232 74.8628 23.9286C72.7957 21.4352 75.4397 26.463 75.7801 26.8109C76.1197 27.1589 70.7229 22.9307 71.899 24.9443C73.0742 26.9567 78.143 35.7631 75.1684 37.3093C72.1926 38.8531 73.1021 32.8185 72.7991 32.3468C72.4961 31.8736 70.9396 41.0794 69.8039 42.4013C68.6695 43.7251 70.2501 38.9181 69.3147 37.0955C68.3785 35.2733 67.9263 35.2968 66.96 35.0641C65.9954 34.8313 64.0753 31.8415 64.2055 30.4082C64.3366 28.9761 63.6196 28.4035 62.7088 26.9873C61.8001 25.5706 60.201 23.9881 57.8175 23.5462C55.434 23.1054 57.4534 20.7972 53.4502 19.8322C49.4479 18.8675 47.2853 17.6821 43.4286 18.216C39.5724 18.7504 32.7421 18.8331 32.1524 18.8238C31.5634 18.8153 38.8735 17.118 39.989 16.8539C41.1023 16.591 23.9824 16.456 19.6588 21.5345C15.3341 26.6141 10.0678 35.8555 16.3765 46.9555C22.6846 58.0578 38.4359 62.784 46.9444 60.0455Z" fill="black"/>
</svg>
