<svg width="50" height="44" viewBox="0 0 50 44" fill="none" xmlns="http://www.w3.org/2000/svg">
<path d="M0 6.875C0 4.59766 1.86632 2.75 4.16667 2.75H12.5C14.8003 2.75 16.6667 4.59766 16.6667 6.875V8.25H33.3333V6.875C33.3333 4.59766 35.1996 2.75 37.5 2.75H45.8333C48.1337 2.75 50 4.59766 50 6.875V15.125C50 17.4023 48.1337 19.25 45.8333 19.25H37.5C35.1996 19.25 33.3333 17.4023 33.3333 15.125V13.75H16.6667V15.125C16.6667 15.2711 16.658 15.4172 16.6406 15.5547L23.6111 24.75H31.9444C34.2448 24.75 36.1111 26.5977 36.1111 28.875V37.125C36.1111 39.4023 34.2448 41.25 31.9444 41.25H23.6111C21.3108 41.25 19.4444 39.4023 19.4444 37.125V28.875C19.4444 28.7289 19.4531 28.5828 19.4705 28.4453L12.5 19.25H4.16667C1.86632 19.25 0 17.4023 0 15.125V6.875Z" fill="#EF6E26"/>
</svg>
